<svg xmlns="http://www.w3.org/2000/svg" viewBox="0 0 200 200"><defs><style>.cls-1,.cls-2{fill:#fff;}.cls-2{stroke:#000;stroke-width:3px;}.cls-2,.cls-3{stroke-miterlimit:10;}.cls-3{stroke:#fff;stroke-width:2px;}</style></defs><g id="Calque_1" data-name="Calque 1"><path d="M200,89.55v19.9a47.37,47.37,0,0,0-1.44,5.14c-9.1,54.47-59.54,91.59-112.85,83C38.64,190,3.18,150.91,1.16,104.38-.91,56.53,30.74,14.46,77.5,3c4.64-1.15,9.36-2,14-3h17.91a38.24,38.24,0,0,0,4.27,1.1A99.3,99.3,0,0,1,197.7,80C198.35,83.22,199.23,86.38,200,89.55Zm-64.06,9.74a35.52,35.52,0,1,0-35.22,35.65A35.71,35.71,0,0,0,135.94,99.29Zm17.44-63.4c-20.16-21-60.75-28.4-84.46-16.28C115.05,14.39,117,14.75,153.38,35.89Zm-103,127.56C73,184.81,108.16,189.28,133,177.64,103.24,185.93,75.66,181.65,50.41,163.45Zm-2.92,5.06c22.19,21.18,56.85,26,81.53,14.83-14,3.4-28,4.86-42.22,2.27C72.41,183,59.6,176.65,47.49,168.51ZM73.6,14q44.78-11.2,81.63,16.48C136.44,10.83,102.33,2.39,73.6,14Zm49.79,154.39c-23.82,5.78-45.75,1.71-65.7-12.82C73.74,172.49,102.23,178,123.39,168.34ZM144.72,35.66C129,19.58,99.9,14.7,82.61,24,105.07,18.52,125.65,22.75,144.72,35.66ZM78,29.59c23.4-6.05,44.91-2,64.73,11.79C127.51,25.19,97.19,19.72,78,29.59ZM57,162.3c15.79,16.09,45.14,20.91,65,10.84C98.71,179.4,77.07,175.84,57,162.3ZM136.59,43.49c-10.43-12.52-33.75-17-46.94-9C106.65,30.45,122.34,32.93,136.59,43.49ZM69.05,150c7.35,10.69,32.69,16.27,44.41,8.05C97.46,162.06,82.63,159.49,69.05,150Zm64.62-101.6C124,36.55,100.16,31.32,86.46,40.08Q112.05,33,133.67,48.44ZM111.78,163.22c-16.41,4-31.76,1.8-45.81-8C77.48,167.31,99.28,171,111.78,163.22Zm-3.54-16.57c-5.44,0-11.63.83-17.48-.24-5.67-1-11-4-16.59-6.24C83.12,149.75,98.67,152.38,108.24,146.65Zm21.85-93.54C122.8,43.42,106,40,96.35,46.44,108.76,43,119.76,46.4,130.09,53.11Zm-37.16-1.4c12.47-3,23.85-.65,34.35,6.55C119.9,48.52,104.11,45.51,92.93,51.71Zm-22.29,92c7.47,10.55,26.05,14.23,34.68,7.38C92.92,154.7,81.85,151.55,70.64,143.74Z"/><path class="cls-1" d="M91.54,0c-4.68,1-9.4,1.82-14,3C30.74,14.46-.91,56.53,1.16,104.38c2,46.53,37.48,85.63,84.55,93.21,53.31,8.59,103.75-28.53,112.85-83a47.37,47.37,0,0,1,1.44-5.14V200H0V0Z"/><path class="cls-1" d="M200,89.55c-.77-3.17-1.65-6.33-2.3-9.52a99.3,99.3,0,0,0-84-78.93A38.24,38.24,0,0,1,109.45,0H200Z"/><path class="cls-1" d="M135.94,99.29a35.52,35.52,0,1,1-35.53-35.37A35.65,35.65,0,0,1,135.94,99.29Zm-35.47-9.14a9.29,9.29,0,1,0,0,18.57,9.36,9.36,0,0,0,9.3-9.49A9.45,9.45,0,0,0,100.47,90.15Z"/><path class="cls-1" d="M153.38,35.89C117,14.75,115.05,14.39,68.92,19.61,92.63,7.49,133.22,14.87,153.38,35.89Z"/><path class="cls-1" d="M50.41,163.45c25.25,18.2,52.83,22.48,82.59,14.19C108.16,189.28,73,184.81,50.41,163.45Z"/><path class="cls-1" d="M47.49,168.51C59.6,176.65,72.41,183,86.8,185.61c14.22,2.59,28.27,1.13,42.22-2.27C104.34,194.46,69.68,189.69,47.49,168.51Z"/><path class="cls-1" d="M73.6,14c28.73-11.56,62.84-3.12,81.63,16.48Q118.34,2.76,73.6,14Z"/><path class="cls-1" d="M123.39,168.34c-21.16,9.69-49.65,4.15-65.7-12.82C77.64,170.05,99.57,174.12,123.39,168.34Z"/><path class="cls-1" d="M144.72,35.66C125.65,22.75,105.07,18.52,82.61,24,99.9,14.7,129,19.58,144.72,35.66Z"/><path class="cls-1" d="M78,29.59c19.18-9.87,49.5-4.4,64.73,11.79C122.92,27.63,101.41,23.54,78,29.59Z"/><path class="cls-1" d="M57,162.3c20,13.54,41.68,17.1,65,10.84C102.17,183.21,72.82,178.39,57,162.3Z"/><path class="cls-1" d="M136.59,43.49c-14.25-10.56-29.94-13-46.94-9C102.84,26.49,126.16,31,136.59,43.49Z"/><path class="cls-1" d="M69.05,150c13.58,9.45,28.41,12,44.41,8.05C101.74,166.31,76.4,160.73,69.05,150Z"/><path class="cls-1" d="M133.67,48.44Q112,33,86.46,40.08C100.16,31.32,124,36.55,133.67,48.44Z"/><path class="cls-1" d="M111.78,163.22c-12.5,7.8-34.3,4.09-45.81-8C80,165,95.37,167.21,111.78,163.22Z"/><path class="cls-1" d="M108.24,146.65c-9.57,5.73-25.12,3.1-34.07-6.48,5.6,2.19,10.92,5.2,16.59,6.24C96.61,147.48,102.8,146.65,108.24,146.65Z"/><path class="cls-1" d="M130.09,53.11C119.76,46.4,108.76,43,96.35,46.44,106,40,122.8,43.42,130.09,53.11Z"/><path class="cls-1" d="M92.93,51.71c11.18-6.2,27-3.19,34.35,6.55C116.78,51.06,105.4,48.68,92.93,51.71Z"/><path class="cls-1" d="M70.64,143.74c11.21,7.81,22.28,11,34.68,7.38C96.69,158,78.11,154.29,70.64,143.74Z"/><path d="M100.47,90.15a9.45,9.45,0,0,1,9.25,9.08,9.29,9.29,0,0,1-18.57.44A9.49,9.49,0,0,1,100.47,90.15Z"/></g><g id="Calque_2" data-name="Calque 2"><path class="cls-2" d="M109.48,110.85v10.24a23.61,23.61,0,0,1-7,1.89,24,24,0,0,1-12-1.54,19.77,19.77,0,0,1-9.49-7.6q-3.87-5.72-3.87-14.77,0-11.2,6.33-17.57,6.24-6.21,16.57-6.2t16.61,6.24q6.28,6.28,6.28,16.66V122h-9.05V98.2q0-6.6-3.69-10.29T100,84.35q-6.56,0-10.16,3.56T86.19,99.07q0,7.44,3.69,11.12T100,113.8Q106,113.8,109.48,110.85Z"/><path class="cls-3" d="M53,76.34v9H36c-3.4,0-6,.57-7.69,1.71a3.39,3.39,0,0,0-1.81,3q0,2.37,3.12,3.42a37.49,37.49,0,0,0,6.9,1.24q9,1,12.4,2.9,5.63,3.08,5.62,10.81a11.9,11.9,0,0,1-5.89,10.5q-4.87,3.21-12.65,3.21H18.81v-9.06H36c3.39,0,6-.57,7.69-1.71a3.46,3.46,0,0,0,1.8-2.94c0-1.59-1-2.74-3.12-3.48a37.73,37.73,0,0,0-6.9-1.23q-9-1-12.39-2.85-5.62-3.08-5.63-10.81A12,12,0,0,1,23.38,79.5Q28.26,76.34,36,76.34Z"/><path class="cls-3" d="M189.91,76.12,175.85,115.4a10.59,10.59,0,0,1-4.35,5.14,12.36,12.36,0,0,1-12.88,0,10.59,10.59,0,0,1-4.35-5.14L140.12,76.12h9.8L162.27,111c.67,1.49,1.61,2.24,2.81,2.24a2.87,2.87,0,0,0,2.68-2.07l12.39-35.06Z"/></g></svg>